<?xml version="1.0" encoding="utf-8"?>
<!-- Generator: Adobe Illustrator 25.4.1, SVG Export Plug-In . SVG Version: 6.00 Build 0)  -->
<svg version="1.1" id="Layer_1" xmlns="http://www.w3.org/2000/svg" xmlns:xlink="http://www.w3.org/1999/xlink" x="0px" y="0px"
	 viewBox="0 0 13 14" style="enable-background:new 0 0 13 14;" xml:space="preserve">
<style type="text/css">
	.st0{fill:#FFFFFF;}
</style>
<path class="st0" d="M3.1,6.4c0.1,0,0.2,0.1,0.3,0.2c0.7,0.6,1.3,1.3,2,1.9c0.1,0.1,0.2,0.2,0.3,0.2c0.2,0,0.3,0,0.4-0.2
	C6.8,7.7,7.5,6.9,8.2,6c0.6-0.7,1.2-1.5,1.9-2.2c0.2-0.2,0.5-0.2,0.7-0.1c0.2,0.2,0.2,0.5,0,0.7C9.2,6.3,7.7,8.1,6.2,10
	c-0.2,0.3-0.5,0.3-0.7,0C4.6,9.1,3.7,8.2,2.8,7.3C2.7,7.2,2.6,7,2.7,6.8c0-0.2,0.2-0.3,0.3-0.3C3,6.4,3.1,6.4,3.1,6.4z"/>
</svg>
