<?xml version="1.0" encoding="utf-8"?>
<!-- Generator: Adobe Illustrator 25.4.1, SVG Export Plug-In . SVG Version: 6.00 Build 0)  -->
<svg version="1.1" id="Layer_1" xmlns="http://www.w3.org/2000/svg" xmlns:xlink="http://www.w3.org/1999/xlink" x="0px" y="0px"
	 viewBox="0 0 30 30" style="enable-background:new 0 0 30 30;" xml:space="preserve">
<style type="text/css">
	.st0{fill:#FFFFFF;}
</style>
<path class="st0" d="M25.3,7.2c-1.8-0.7-3.8-1.3-5.7-1.6c0,0,0,0-0.1,0c0,0,0,0,0,0c-0.2,0.4-0.5,0.9-0.7,1.3
	c-2.1-0.3-4.3-0.3-6.4,0c-0.2-0.4-0.5-0.9-0.7-1.3c0,0,0,0,0,0c0,0,0,0-0.1,0c-2,0.3-3.9,0.8-5.7,1.6c0,0,0,0,0,0
	C2,12,1,16.6,1.5,21.2c0,0,0,0,0,0.1c2.1,1.4,4.5,2.4,7,3.1c0,0,0,0,0.1,0c0,0,0,0,0,0c0.5-0.6,1-1.3,1.4-2c0,0,0,0,0,0c0,0,0,0,0,0
	c0,0,0,0,0,0c-0.8-0.3-1.5-0.6-2.2-0.9c0,0,0,0,0,0c0,0,0,0,0-0.1c0,0,0,0,0,0C8,21.1,8.2,21,8.3,20.9c0,0,0,0,0,0c0,0,0,0,0,0
	c4.6,1.8,9.6,1.8,14.2,0c0,0,0,0,0,0c0,0,0,0,0,0c0.1,0.1,0.3,0.2,0.4,0.3c0,0,0,0,0,0c0,0,0,0,0,0c0,0,0,0,0,0c0,0,0,0,0,0
	c-0.7,0.4-1.4,0.7-2.2,0.9c0,0,0,0,0,0c0,0,0,0,0,0c0,0,0,0,0,0c0,0,0,0,0,0c0.4,0.7,0.9,1.4,1.4,2c0,0,0,0,0,0c0,0,0,0,0.1,0
	c2.5-0.7,4.9-1.7,7-3.1c0,0,0,0,0,0c0,0,0,0,0,0C30.1,15.9,28.5,11.3,25.3,7.2C25.3,7.2,25.3,7.2,25.3,7.2
	C25.3,7.2,25.3,7.2,25.3,7.2z M10.8,18.4c-1.4,0-2.5-1.1-2.5-2.5c0-1.4,1.1-2.5,2.5-2.5c1.4,0,2.6,1.1,2.5,2.5
	C13.4,17.3,12.2,18.4,10.8,18.4z M20.2,18.4c-1.4,0-2.5-1.1-2.5-2.5c0-1.4,1.1-2.5,2.5-2.5c1.4,0,2.6,1.1,2.5,2.5
	C22.7,17.3,21.6,18.4,20.2,18.4z"/>
</svg>
